<mxfile host="app.diagrams.net" modified="2023-05-11T20:04:29.230Z" agent="Mozilla/5.0 (Windows NT 10.0; Win64; x64) AppleWebKit/537.36 (KHTML, like Gecko) Chrome/108.0.0.0 Safari/537.36 Edg/108.0.1462.76" etag="dosPIkOMbJzOc6eKtSnU" version="21.2.9" type="github">
  <diagram id="kgpKYQtTHZ0yAKxKKP6v" name="Page-1">
    <mxGraphModel dx="1122" dy="670" grid="1" gridSize="10" guides="1" tooltips="1" connect="1" arrows="1" fold="1" page="1" pageScale="1" pageWidth="850" pageHeight="1100" math="0" shadow="0">
      <root>
        <mxCell id="0" />
        <mxCell id="1" parent="0" />
        <mxCell id="m-1W4dcywSHlCXeHyEQh-1" value="Client Application" style="swimlane;horizontal=0;whiteSpace=wrap;html=1;" vertex="1" parent="1">
          <mxGeometry x="20" y="40" width="810" height="120" as="geometry">
            <mxRectangle x="80" y="40" width="40" height="100" as="alternateBounds" />
          </mxGeometry>
        </mxCell>
        <mxCell id="m-1W4dcywSHlCXeHyEQh-8" style="edgeStyle=orthogonalEdgeStyle;rounded=0;orthogonalLoop=1;jettySize=auto;html=1;exitX=1;exitY=0.5;exitDx=0;exitDy=0;entryX=0;entryY=0.5;entryDx=0;entryDy=0;" edge="1" parent="m-1W4dcywSHlCXeHyEQh-1" source="m-1W4dcywSHlCXeHyEQh-3" target="m-1W4dcywSHlCXeHyEQh-7">
          <mxGeometry relative="1" as="geometry" />
        </mxCell>
        <mxCell id="m-1W4dcywSHlCXeHyEQh-3" value="Input: a real-life log" style="rounded=1;whiteSpace=wrap;html=1;" vertex="1" parent="m-1W4dcywSHlCXeHyEQh-1">
          <mxGeometry x="90" y="30" width="100" height="60" as="geometry" />
        </mxCell>
        <mxCell id="m-1W4dcywSHlCXeHyEQh-5" style="edgeStyle=orthogonalEdgeStyle;rounded=0;orthogonalLoop=1;jettySize=auto;html=1;exitX=1;exitY=0.5;exitDx=0;exitDy=0;entryX=0;entryY=0.5;entryDx=0;entryDy=0;" edge="1" parent="m-1W4dcywSHlCXeHyEQh-1" source="m-1W4dcywSHlCXeHyEQh-4" target="m-1W4dcywSHlCXeHyEQh-3">
          <mxGeometry relative="1" as="geometry" />
        </mxCell>
        <mxCell id="m-1W4dcywSHlCXeHyEQh-4" value="" style="ellipse;whiteSpace=wrap;html=1;aspect=fixed;" vertex="1" parent="m-1W4dcywSHlCXeHyEQh-1">
          <mxGeometry x="30" y="45" width="30" height="30" as="geometry" />
        </mxCell>
        <mxCell id="m-1W4dcywSHlCXeHyEQh-6" value="&lt;font style=&quot;font-size: 10px;&quot;&gt;Start &lt;br&gt;Application&lt;/font&gt;" style="text;html=1;align=center;verticalAlign=middle;resizable=0;points=[];autosize=1;strokeColor=none;fillColor=none;" vertex="1" parent="m-1W4dcywSHlCXeHyEQh-1">
          <mxGeometry x="20" y="75" width="80" height="40" as="geometry" />
        </mxCell>
        <mxCell id="m-1W4dcywSHlCXeHyEQh-10" style="edgeStyle=orthogonalEdgeStyle;rounded=0;orthogonalLoop=1;jettySize=auto;html=1;exitX=1;exitY=0.5;exitDx=0;exitDy=0;entryX=0;entryY=0.5;entryDx=0;entryDy=0;" edge="1" parent="m-1W4dcywSHlCXeHyEQh-1" source="m-1W4dcywSHlCXeHyEQh-7" target="m-1W4dcywSHlCXeHyEQh-9">
          <mxGeometry relative="1" as="geometry" />
        </mxCell>
        <mxCell id="m-1W4dcywSHlCXeHyEQh-7" value="Get anomalies and their rank of the severity and the deviations from control-flow and temporal aspects" style="rounded=1;whiteSpace=wrap;html=1;" vertex="1" parent="m-1W4dcywSHlCXeHyEQh-1">
          <mxGeometry x="530" y="30" width="200" height="60" as="geometry" />
        </mxCell>
        <mxCell id="m-1W4dcywSHlCXeHyEQh-9" value="" style="ellipse;whiteSpace=wrap;html=1;aspect=fixed;strokeWidth=3;" vertex="1" parent="m-1W4dcywSHlCXeHyEQh-1">
          <mxGeometry x="760" y="45" width="30" height="30" as="geometry" />
        </mxCell>
        <mxCell id="m-1W4dcywSHlCXeHyEQh-13" style="rounded=0;orthogonalLoop=1;jettySize=auto;html=1;exitX=0.5;exitY=1;exitDx=0;exitDy=0;entryX=0.5;entryY=0;entryDx=0;entryDy=0;endArrow=classic;endFill=1;startArrow=none;startFill=0;" edge="1" parent="1" source="m-1W4dcywSHlCXeHyEQh-3" target="m-1W4dcywSHlCXeHyEQh-21">
          <mxGeometry relative="1" as="geometry">
            <mxPoint x="270" y="280" as="targetPoint" />
          </mxGeometry>
        </mxCell>
        <mxCell id="m-1W4dcywSHlCXeHyEQh-14" value="real event log" style="edgeLabel;html=1;align=center;verticalAlign=middle;resizable=0;points=[];" vertex="1" connectable="0" parent="m-1W4dcywSHlCXeHyEQh-13">
          <mxGeometry x="0.3811" relative="1" as="geometry">
            <mxPoint x="40" y="-3" as="offset" />
          </mxGeometry>
        </mxCell>
        <mxCell id="m-1W4dcywSHlCXeHyEQh-16" value="Our Library" style="swimlane;childLayout=stackLayout;resizeParent=1;resizeParentMax=0;horizontal=0;startSize=20;horizontalStack=0;html=1;" vertex="1" parent="1">
          <mxGeometry x="20" y="180" width="810" height="330" as="geometry" />
        </mxCell>
        <mxCell id="m-1W4dcywSHlCXeHyEQh-18" value="" style="swimlane;startSize=0;horizontal=0;html=1;" vertex="1" parent="m-1W4dcywSHlCXeHyEQh-16">
          <mxGeometry x="20" width="790" height="180" as="geometry" />
        </mxCell>
        <mxCell id="m-1W4dcywSHlCXeHyEQh-23" style="edgeStyle=orthogonalEdgeStyle;rounded=0;orthogonalLoop=1;jettySize=auto;html=1;exitX=1;exitY=0.5;exitDx=0;exitDy=0;entryX=0;entryY=0.5;entryDx=0;entryDy=0;" edge="1" parent="m-1W4dcywSHlCXeHyEQh-18" source="m-1W4dcywSHlCXeHyEQh-21" target="m-1W4dcywSHlCXeHyEQh-28">
          <mxGeometry relative="1" as="geometry">
            <mxPoint x="160" y="180" as="targetPoint" />
          </mxGeometry>
        </mxCell>
        <mxCell id="m-1W4dcywSHlCXeHyEQh-21" value="Receive Input" style="rounded=1;whiteSpace=wrap;html=1;" vertex="1" parent="m-1W4dcywSHlCXeHyEQh-18">
          <mxGeometry x="70" y="110" width="100" height="60" as="geometry" />
        </mxCell>
        <mxCell id="m-1W4dcywSHlCXeHyEQh-28" value="Get anomalies and their rank of the severity" style="rounded=1;whiteSpace=wrap;html=1;" vertex="1" parent="m-1W4dcywSHlCXeHyEQh-18">
          <mxGeometry x="190" y="110" width="100" height="60" as="geometry" />
        </mxCell>
        <mxCell id="m-1W4dcywSHlCXeHyEQh-54" value="Get the deviations from control-flow and temporal aspects" style="rounded=1;whiteSpace=wrap;html=1;" vertex="1" parent="m-1W4dcywSHlCXeHyEQh-18">
          <mxGeometry x="610" y="110" width="100" height="60" as="geometry" />
        </mxCell>
        <mxCell id="m-1W4dcywSHlCXeHyEQh-55" value="" style="edgeStyle=orthogonalEdgeStyle;rounded=0;orthogonalLoop=1;jettySize=auto;html=1;exitX=1;exitY=0.5;exitDx=0;exitDy=0;entryX=0;entryY=0.5;entryDx=0;entryDy=0;" edge="1" parent="m-1W4dcywSHlCXeHyEQh-18" source="m-1W4dcywSHlCXeHyEQh-28" target="m-1W4dcywSHlCXeHyEQh-54">
          <mxGeometry relative="1" as="geometry">
            <mxPoint x="340" y="300" as="sourcePoint" />
            <mxPoint x="660" y="300" as="targetPoint" />
          </mxGeometry>
        </mxCell>
        <mxCell id="m-1W4dcywSHlCXeHyEQh-76" value="Return anomalies and their rank of the severity and the deviations from control-flow and temporal aspects" style="rounded=1;whiteSpace=wrap;html=1;" vertex="1" parent="m-1W4dcywSHlCXeHyEQh-18">
          <mxGeometry x="577.5" y="10" width="165" height="80" as="geometry" />
        </mxCell>
        <mxCell id="m-1W4dcywSHlCXeHyEQh-77" value="" style="edgeStyle=orthogonalEdgeStyle;rounded=0;orthogonalLoop=1;jettySize=auto;html=1;exitX=0.5;exitY=0;exitDx=0;exitDy=0;entryX=0.5;entryY=1;entryDx=0;entryDy=0;" edge="1" parent="m-1W4dcywSHlCXeHyEQh-18" source="m-1W4dcywSHlCXeHyEQh-54" target="m-1W4dcywSHlCXeHyEQh-76">
          <mxGeometry relative="1" as="geometry">
            <mxPoint x="660" y="110" as="sourcePoint" />
            <mxPoint x="660" y="-50" as="targetPoint" />
          </mxGeometry>
        </mxCell>
        <mxCell id="m-1W4dcywSHlCXeHyEQh-66" value="" style="endArrow=classic;html=1;rounded=0;exitX=0.74;exitY=-0.002;exitDx=0;exitDy=0;entryX=0.805;entryY=1;entryDx=0;entryDy=0;entryPerimeter=0;exitPerimeter=0;" edge="1" parent="m-1W4dcywSHlCXeHyEQh-16" source="m-1W4dcywSHlCXeHyEQh-56" target="m-1W4dcywSHlCXeHyEQh-54">
          <mxGeometry width="50" height="50" relative="1" as="geometry">
            <mxPoint x="510" y="190" as="sourcePoint" />
            <mxPoint x="630" y="150" as="targetPoint" />
          </mxGeometry>
        </mxCell>
        <mxCell id="m-1W4dcywSHlCXeHyEQh-70" value="" style="endArrow=classic;html=1;rounded=0;exitX=0.25;exitY=1;exitDx=0;exitDy=0;entryX=0.548;entryY=0.004;entryDx=0;entryDy=0;entryPerimeter=0;" edge="1" parent="m-1W4dcywSHlCXeHyEQh-16" source="m-1W4dcywSHlCXeHyEQh-54" target="m-1W4dcywSHlCXeHyEQh-56">
          <mxGeometry width="50" height="50" relative="1" as="geometry">
            <mxPoint x="330" y="180" as="sourcePoint" />
            <mxPoint x="660" y="210" as="targetPoint" />
          </mxGeometry>
        </mxCell>
        <mxCell id="m-1W4dcywSHlCXeHyEQh-19" value="Automatic Checking" style="swimlane;startSize=20;horizontal=0;html=1;" vertex="1" parent="m-1W4dcywSHlCXeHyEQh-16">
          <mxGeometry x="20" y="180" width="790" height="150" as="geometry" />
        </mxCell>
        <mxCell id="m-1W4dcywSHlCXeHyEQh-27" value="" style="rounded=1;whiteSpace=wrap;html=1;" vertex="1" parent="m-1W4dcywSHlCXeHyEQh-19">
          <mxGeometry x="95" y="30" width="295" height="90" as="geometry" />
        </mxCell>
        <mxCell id="m-1W4dcywSHlCXeHyEQh-39" style="edgeStyle=orthogonalEdgeStyle;rounded=0;orthogonalLoop=1;jettySize=auto;html=1;exitX=1;exitY=0.5;exitDx=0;exitDy=0;entryX=0;entryY=0.5;entryDx=0;entryDy=0;" edge="1" parent="m-1W4dcywSHlCXeHyEQh-19" source="m-1W4dcywSHlCXeHyEQh-34" target="m-1W4dcywSHlCXeHyEQh-38">
          <mxGeometry relative="1" as="geometry" />
        </mxCell>
        <mxCell id="m-1W4dcywSHlCXeHyEQh-34" value="" style="ellipse;whiteSpace=wrap;html=1;aspect=fixed;" vertex="1" parent="m-1W4dcywSHlCXeHyEQh-19">
          <mxGeometry x="100" y="65" width="20" height="20" as="geometry" />
        </mxCell>
        <mxCell id="m-1W4dcywSHlCXeHyEQh-35" value="" style="ellipse;whiteSpace=wrap;html=1;aspect=fixed;strokeWidth=3;" vertex="1" parent="m-1W4dcywSHlCXeHyEQh-19">
          <mxGeometry x="360" y="65" width="20" height="20" as="geometry" />
        </mxCell>
        <mxCell id="m-1W4dcywSHlCXeHyEQh-41" style="edgeStyle=orthogonalEdgeStyle;rounded=0;orthogonalLoop=1;jettySize=auto;html=1;exitX=1;exitY=0.5;exitDx=0;exitDy=0;entryX=0;entryY=0.5;entryDx=0;entryDy=0;" edge="1" parent="m-1W4dcywSHlCXeHyEQh-19" source="m-1W4dcywSHlCXeHyEQh-38" target="m-1W4dcywSHlCXeHyEQh-40">
          <mxGeometry relative="1" as="geometry" />
        </mxCell>
        <mxCell id="m-1W4dcywSHlCXeHyEQh-38" value="Anomaly detection and analysis on the event log" style="rounded=1;whiteSpace=wrap;html=1;" vertex="1" parent="m-1W4dcywSHlCXeHyEQh-19">
          <mxGeometry x="140" y="42.5" width="90" height="65" as="geometry" />
        </mxCell>
        <mxCell id="m-1W4dcywSHlCXeHyEQh-46" style="edgeStyle=orthogonalEdgeStyle;rounded=0;orthogonalLoop=1;jettySize=auto;html=1;exitX=1;exitY=0.5;exitDx=0;exitDy=0;entryX=0;entryY=0.5;entryDx=0;entryDy=0;" edge="1" parent="m-1W4dcywSHlCXeHyEQh-19" source="m-1W4dcywSHlCXeHyEQh-40" target="m-1W4dcywSHlCXeHyEQh-35">
          <mxGeometry relative="1" as="geometry" />
        </mxCell>
        <mxCell id="m-1W4dcywSHlCXeHyEQh-40" value="Return the ranking of the severity for the anomalies" style="rounded=1;whiteSpace=wrap;html=1;" vertex="1" parent="m-1W4dcywSHlCXeHyEQh-19">
          <mxGeometry x="250" y="42.5" width="90" height="65" as="geometry" />
        </mxCell>
        <mxCell id="m-1W4dcywSHlCXeHyEQh-47" value="Real log" style="text;html=1;strokeColor=none;fillColor=none;align=center;verticalAlign=middle;whiteSpace=wrap;rounded=0;" vertex="1" parent="m-1W4dcywSHlCXeHyEQh-19">
          <mxGeometry x="580" y="10" width="50" height="20" as="geometry" />
        </mxCell>
        <mxCell id="m-1W4dcywSHlCXeHyEQh-48" value="Severity rank" style="text;html=1;strokeColor=none;fillColor=none;align=center;verticalAlign=middle;whiteSpace=wrap;rounded=0;" vertex="1" parent="m-1W4dcywSHlCXeHyEQh-19">
          <mxGeometry x="260" y="10" width="80" height="20" as="geometry" />
        </mxCell>
        <mxCell id="m-1W4dcywSHlCXeHyEQh-56" value="" style="rounded=1;whiteSpace=wrap;html=1;" vertex="1" parent="m-1W4dcywSHlCXeHyEQh-19">
          <mxGeometry x="472.5" y="30" width="295" height="90" as="geometry" />
        </mxCell>
        <mxCell id="m-1W4dcywSHlCXeHyEQh-61" style="edgeStyle=orthogonalEdgeStyle;rounded=0;orthogonalLoop=1;jettySize=auto;html=1;exitX=1;exitY=0.5;exitDx=0;exitDy=0;entryX=0;entryY=0.5;entryDx=0;entryDy=0;" edge="1" parent="m-1W4dcywSHlCXeHyEQh-19" source="m-1W4dcywSHlCXeHyEQh-57" target="m-1W4dcywSHlCXeHyEQh-59">
          <mxGeometry relative="1" as="geometry" />
        </mxCell>
        <mxCell id="m-1W4dcywSHlCXeHyEQh-57" value="" style="ellipse;whiteSpace=wrap;html=1;aspect=fixed;" vertex="1" parent="m-1W4dcywSHlCXeHyEQh-19">
          <mxGeometry x="480" y="65" width="20" height="20" as="geometry" />
        </mxCell>
        <mxCell id="m-1W4dcywSHlCXeHyEQh-58" value="" style="ellipse;whiteSpace=wrap;html=1;aspect=fixed;strokeWidth=3;" vertex="1" parent="m-1W4dcywSHlCXeHyEQh-19">
          <mxGeometry x="740" y="65" width="20" height="20" as="geometry" />
        </mxCell>
        <mxCell id="m-1W4dcywSHlCXeHyEQh-62" style="edgeStyle=orthogonalEdgeStyle;rounded=0;orthogonalLoop=1;jettySize=auto;html=1;exitX=1;exitY=0.5;exitDx=0;exitDy=0;entryX=0;entryY=0.5;entryDx=0;entryDy=0;" edge="1" parent="m-1W4dcywSHlCXeHyEQh-19" source="m-1W4dcywSHlCXeHyEQh-59" target="m-1W4dcywSHlCXeHyEQh-60">
          <mxGeometry relative="1" as="geometry" />
        </mxCell>
        <mxCell id="m-1W4dcywSHlCXeHyEQh-59" value="Find deviations in the control-flow and execution time of the processes" style="rounded=1;whiteSpace=wrap;html=1;" vertex="1" parent="m-1W4dcywSHlCXeHyEQh-19">
          <mxGeometry x="520" y="40" width="120" height="70" as="geometry" />
        </mxCell>
        <mxCell id="m-1W4dcywSHlCXeHyEQh-63" style="edgeStyle=orthogonalEdgeStyle;rounded=0;orthogonalLoop=1;jettySize=auto;html=1;exitX=1;exitY=0.5;exitDx=0;exitDy=0;entryX=0;entryY=0.5;entryDx=0;entryDy=0;" edge="1" parent="m-1W4dcywSHlCXeHyEQh-19" source="m-1W4dcywSHlCXeHyEQh-60" target="m-1W4dcywSHlCXeHyEQh-58">
          <mxGeometry relative="1" as="geometry" />
        </mxCell>
        <mxCell id="m-1W4dcywSHlCXeHyEQh-60" value="Return deviations" style="rounded=1;whiteSpace=wrap;html=1;" vertex="1" parent="m-1W4dcywSHlCXeHyEQh-19">
          <mxGeometry x="660" y="42.5" width="60" height="65" as="geometry" />
        </mxCell>
        <mxCell id="m-1W4dcywSHlCXeHyEQh-67" style="edgeStyle=orthogonalEdgeStyle;rounded=0;orthogonalLoop=1;jettySize=auto;html=1;entryX=0.237;entryY=-0.007;entryDx=0;entryDy=0;entryPerimeter=0;" edge="1" parent="m-1W4dcywSHlCXeHyEQh-19">
          <mxGeometry relative="1" as="geometry">
            <mxPoint x="220" y="-10" as="sourcePoint" />
            <mxPoint x="220" y="30" as="targetPoint" />
          </mxGeometry>
        </mxCell>
        <mxCell id="m-1W4dcywSHlCXeHyEQh-68" value="" style="endArrow=classic;html=1;rounded=0;exitX=0.356;exitY=0.004;exitDx=0;exitDy=0;exitPerimeter=0;" edge="1" parent="m-1W4dcywSHlCXeHyEQh-19">
          <mxGeometry width="50" height="50" relative="1" as="geometry">
            <mxPoint x="260" y="30" as="sourcePoint" />
            <mxPoint x="260" y="-10" as="targetPoint" />
          </mxGeometry>
        </mxCell>
        <mxCell id="m-1W4dcywSHlCXeHyEQh-69" value="Real log" style="text;html=1;strokeColor=none;fillColor=none;align=center;verticalAlign=middle;whiteSpace=wrap;rounded=0;" vertex="1" parent="m-1W4dcywSHlCXeHyEQh-19">
          <mxGeometry x="160" y="10" width="50" height="20" as="geometry" />
        </mxCell>
        <mxCell id="m-1W4dcywSHlCXeHyEQh-73" value="Deviations" style="text;html=1;strokeColor=none;fillColor=none;align=center;verticalAlign=middle;whiteSpace=wrap;rounded=0;" vertex="1" parent="m-1W4dcywSHlCXeHyEQh-19">
          <mxGeometry x="690" y="10" width="80" height="20" as="geometry" />
        </mxCell>
        <mxCell id="m-1W4dcywSHlCXeHyEQh-24" value="External Libraries" style="swimlane;horizontal=0;whiteSpace=wrap;html=1;" vertex="1" parent="1">
          <mxGeometry x="20" y="530" width="810" height="150" as="geometry" />
        </mxCell>
        <mxCell id="m-1W4dcywSHlCXeHyEQh-44" value="Analysis using PyCelonis, Numpy, Pandas, Sklearn, and GPT-4" style="rounded=1;whiteSpace=wrap;html=1;" vertex="1" parent="m-1W4dcywSHlCXeHyEQh-24">
          <mxGeometry x="185" y="50" width="155" height="70" as="geometry" />
        </mxCell>
        <mxCell id="m-1W4dcywSHlCXeHyEQh-74" value="Analysis using PyCelonis, Numpy, Automata" style="rounded=1;whiteSpace=wrap;html=1;" vertex="1" parent="m-1W4dcywSHlCXeHyEQh-24">
          <mxGeometry x="575" y="50" width="155" height="70" as="geometry" />
        </mxCell>
        <mxCell id="m-1W4dcywSHlCXeHyEQh-45" style="edgeStyle=orthogonalEdgeStyle;rounded=0;orthogonalLoop=1;jettySize=auto;html=1;entryX=0.5;entryY=0;entryDx=0;entryDy=0;exitX=0.5;exitY=1;exitDx=0;exitDy=0;" edge="1" parent="1" source="m-1W4dcywSHlCXeHyEQh-27" target="m-1W4dcywSHlCXeHyEQh-44">
          <mxGeometry relative="1" as="geometry" />
        </mxCell>
        <mxCell id="m-1W4dcywSHlCXeHyEQh-37" style="edgeStyle=orthogonalEdgeStyle;rounded=0;orthogonalLoop=1;jettySize=auto;html=1;exitX=0.5;exitY=0;exitDx=0;exitDy=0;entryX=0.5;entryY=1;entryDx=0;entryDy=0;" edge="1" parent="1" source="m-1W4dcywSHlCXeHyEQh-76" target="m-1W4dcywSHlCXeHyEQh-7">
          <mxGeometry relative="1" as="geometry">
            <mxPoint x="660.0000000000002" y="300" as="targetPoint" />
            <Array as="points">
              <mxPoint x="700" y="150" />
              <mxPoint x="650" y="150" />
            </Array>
          </mxGeometry>
        </mxCell>
        <mxCell id="m-1W4dcywSHlCXeHyEQh-75" style="edgeStyle=orthogonalEdgeStyle;rounded=0;orthogonalLoop=1;jettySize=auto;html=1;entryX=0.544;entryY=1.009;entryDx=0;entryDy=0;entryPerimeter=0;" edge="1" parent="1" source="m-1W4dcywSHlCXeHyEQh-74" target="m-1W4dcywSHlCXeHyEQh-56">
          <mxGeometry relative="1" as="geometry" />
        </mxCell>
      </root>
    </mxGraphModel>
  </diagram>
</mxfile>
